<svg width="100%" height="auto" viewBox="0 0 342 342" fill="none" xmlns="http://www.w3.org/2000/svg">
<path d="M173.126 63.1697C178.394 63.1697 182.799 64.8587 186.886 68.4861L189.329 64.0349L189.565 63.6042H193.143V89.9197H189.264L189.151 89.2244C187.99 82.1324 185.961 76.7438 183.251 73.1482C180.562 69.5798 177.212 67.781 173.3 67.781C169.524 67.781 165.958 69.2139 163.328 72.1599C160.694 75.1098 158.937 79.6493 158.937 85.9646V103.241C158.937 109.139 160.465 113.892 163.025 117.151C165.571 120.393 169.173 122.206 173.474 122.206C178.31 122.206 182.171 120.338 184.993 116.829C187.838 113.29 189.672 108.022 190.271 101.173L190.337 100.415H194.947L194.877 101.309C194.261 109.231 192.032 115.602 188.349 120.009C184.646 124.439 179.524 126.817 173.3 126.817C166.222 126.817 159.666 123.031 154.904 117.201C150.139 111.368 147.12 103.435 147.12 94.9939C147.12 86.7604 150.232 78.829 155.011 72.95C159.783 67.0795 166.293 63.1698 173.126 63.1697Z" fill="black" stroke="black" stroke-width="1.65971"/>
<path d="M168.874 279.298C163.606 279.298 159.201 277.609 155.114 273.982L152.671 278.433L152.435 278.864H148.857V252.548H152.736L152.849 253.243C154.01 260.335 156.039 265.724 158.749 269.32C161.438 272.888 164.788 274.687 168.7 274.687C172.476 274.687 176.042 273.254 178.672 270.308C181.306 267.358 183.063 262.818 183.063 256.503V239.227C183.063 233.329 181.535 228.575 178.975 225.317C176.429 222.075 172.827 220.262 168.526 220.262C163.69 220.262 159.829 222.13 157.007 225.639C154.162 229.177 152.328 234.445 151.729 241.295L151.663 242.053H147.053L147.123 241.158C147.739 233.237 149.968 226.866 153.651 222.459C157.354 218.029 162.476 215.651 168.7 215.651C175.778 215.651 182.334 219.437 187.096 225.267C191.861 231.1 194.88 239.033 194.88 247.474C194.88 255.707 191.768 263.639 186.989 269.518C182.217 275.388 175.707 279.298 168.874 279.298Z" fill="black" stroke="black" stroke-width="1.65971"/>
<path d="M250.518 94.4876C254.243 98.2126 256.163 102.521 256.488 107.976L261.363 106.556L261.834 106.419L264.365 108.949L245.757 127.557L243.014 124.814L243.426 124.242C247.62 118.407 249.995 113.161 250.622 108.703C251.243 104.278 250.146 100.637 247.38 97.8712C244.71 95.2009 241.175 93.6923 237.232 93.9158C233.284 94.1396 228.832 96.107 224.366 100.573L212.15 112.789C207.979 116.959 205.699 121.401 205.204 125.515C204.713 129.608 205.978 133.437 209.019 136.478C212.438 139.898 216.489 141.307 220.966 140.821C225.48 140.331 230.501 137.902 235.769 133.483L236.352 132.994L239.611 136.253L238.929 136.837C232.892 142.002 226.811 144.931 221.091 145.443C215.34 145.957 210.037 144.017 205.635 139.616C200.63 134.611 198.672 127.297 199.427 119.808C200.182 112.314 203.657 104.57 209.625 98.6011C215.447 92.7791 223.257 89.3718 230.793 88.5938C238.318 87.8171 245.686 89.656 250.518 94.4876Z" fill="black" stroke="black" stroke-width="1.65971"/>
<path d="M91.482 247.98C87.757 244.255 85.8371 239.947 85.5116 234.491L80.6371 235.912L80.1655 236.049L77.6354 233.519L96.2432 214.911L98.986 217.654L98.5744 218.226C94.3803 224.061 92.0048 229.306 91.3784 233.765C90.7567 238.19 91.8536 241.83 94.6198 244.597C97.2901 247.267 100.825 248.775 104.768 248.552C108.716 248.328 113.168 246.361 117.634 241.895L129.85 229.679C134.021 225.508 136.301 221.067 136.796 216.952C137.287 212.859 136.022 209.031 132.981 205.99C129.562 202.57 125.511 201.161 121.034 201.647C116.52 202.137 111.499 204.565 106.231 208.985L105.648 209.474L102.389 206.215L103.071 205.631C109.108 200.465 115.189 197.536 120.909 197.025C126.66 196.511 131.963 198.451 136.365 202.852C141.37 207.857 143.328 215.17 142.573 222.66C141.818 230.153 138.343 237.898 132.375 243.867C126.553 249.689 118.743 253.096 111.207 253.874C103.682 254.651 96.3137 252.812 91.482 247.98Z" fill="black" stroke="black" stroke-width="1.65971"/>
<path d="M278.83 173.127C278.83 178.395 277.141 182.799 273.514 186.887L277.965 189.329L278.396 189.565L278.396 193.143L252.08 193.143L252.08 189.265L252.775 189.151C259.867 187.991 265.256 185.962 268.852 183.252C272.42 180.563 274.219 177.213 274.219 173.301C274.219 169.524 272.786 165.958 269.84 163.328C266.89 160.695 262.35 158.937 256.035 158.937L238.759 158.937C232.861 158.937 228.107 160.466 224.849 163.025C221.607 165.572 219.794 169.174 219.794 173.474C219.794 178.31 221.662 182.171 225.171 184.993C228.709 187.838 233.977 189.672 240.827 190.271L241.585 190.338L241.585 194.947L240.69 194.878C232.769 194.262 226.398 192.033 221.991 188.349C217.561 184.646 215.183 179.525 215.183 173.301C215.183 166.222 218.969 159.666 224.799 154.904C230.632 150.14 238.565 147.12 247.006 147.12C255.239 147.12 263.171 150.233 269.05 155.012C274.92 159.784 278.83 166.294 278.83 173.127Z" fill="black" stroke="black" stroke-width="1.65971"/>
<path d="M63.1699 169.347C63.1699 164.079 64.859 159.674 68.4863 155.587L64.0352 153.144L63.6045 152.908L63.6045 149.33L89.9199 149.33L89.9199 153.209L89.2246 153.322C82.1327 154.483 76.7441 156.512 73.1484 159.222C69.58 161.911 67.7813 165.261 67.7813 169.173C67.7813 172.949 69.2142 176.515 72.1602 179.145C75.11 181.779 79.6496 183.536 85.9648 183.536L103.241 183.536C109.139 183.536 113.893 182.008 117.151 179.448C120.393 176.902 122.206 173.3 122.206 168.999C122.206 164.163 120.338 160.302 116.829 157.48C113.291 154.635 108.023 152.801 101.173 152.202L100.415 152.136L100.415 147.526L101.31 147.596C109.231 148.212 115.602 150.441 120.009 154.124C124.439 157.827 126.817 162.949 126.817 169.173C126.817 176.251 123.031 182.807 117.201 187.569C111.368 192.334 103.435 195.353 94.9941 195.353C86.7607 195.353 78.8292 192.241 72.9502 187.462C67.0798 182.69 63.1701 176.18 63.1699 169.347Z" fill="black" stroke="black" stroke-width="1.65971"/>
<circle cx="171" cy="171" r="168.5" stroke="black" stroke-width="5"/>
<g clip-path="url(#clip0_260_1152)">
<path d="M137.651 42.5958L140.639 42.0277L136.971 22.8615L133.983 23.4295L133.788 22.4051L135.966 21.986L138.238 21.5856L139.969 21.2224L141.589 20.915C144.168 20.4214 145.285 20.4959 146.411 20.6729C148.776 21.064 150.955 23.0291 151.392 25.3015C151.83 27.5739 150.526 30.2094 148.469 31.4388C147.482 32.0162 146.477 32.5005 143.898 32.994L141.999 33.3573L143.553 41.4782L148.283 40.5749L148.478 41.5993L144.559 42.3537L142.287 42.7541L140.025 43.2198L137.847 43.6389L137.651 42.6144V42.5958ZM143.516 31.9882C145.629 31.5878 146.663 31.2246 147.324 30.5168C148.162 29.6786 148.357 28.3468 148.041 26.6705L147.771 25.2363C147.445 23.5599 146.775 22.3958 145.685 21.9301C144.801 21.5204 143.712 21.5669 141.598 21.9674L139.885 22.2934L141.803 32.3142L143.516 31.9882Z" fill="black"/>
<path d="M182.71 19.369L180.084 19.3225L179.852 33.6366C179.786 37.6598 176.956 40.3327 173.037 40.2675C170.216 40.2209 168.205 39.3641 166.874 37.8275C165.599 36.3467 165.44 34.3537 165.478 32.2303L165.692 19.0896L162.657 19.0431L162.675 18L164.891 18.0373L167.2 18.1024H169.509L171.724 18.1397L171.706 19.1828L168.671 19.1362L168.438 33.767C168.419 34.9684 168.494 36.1418 169.173 37.1663C170.011 38.4421 171.454 39.1313 173.158 39.1592C176.388 39.2151 178.707 36.9707 178.753 33.6087L178.986 19.2945L176.36 19.2479L176.379 18.2049L182.738 18.3073L182.719 19.3504L182.71 19.369Z" fill="black"/>
<path d="M190.53 39.8391L193.49 40.5283L197.903 21.5203L194.942 20.8312L195.175 19.816L197.456 20.3469L199.607 20.8777L201.832 21.362L203.098 21.66C206.337 22.4144 206.877 22.6006 208.153 23.3923C210.089 24.5843 211.346 26.866 210.89 28.8404C210.359 31.1221 207.995 32.6215 204.885 32.7146L204.839 32.9009C205.639 33.2455 206.319 33.6645 206.794 34.2978C207.343 35.0149 207.65 35.9276 207.306 37.4084L206.272 41.8507C206.058 42.7727 206.319 43.4526 207.157 43.6481C208.358 43.9275 209.158 43.1359 209.586 41.3199L210.294 38.2652L211.309 38.498L210.592 41.5806C209.838 44.8495 207.985 45.399 206.254 44.9985C204.001 44.477 202.856 42.8472 203.34 40.7425L204.029 37.753C204.475 35.8438 204.448 34.6983 203.442 33.5528C202.641 32.6494 201.189 32.3141 199.932 32.0254L198.573 31.7088L196.367 41.2081L199.327 41.8973L199.095 42.9124L196.935 42.4095L194.663 41.8507L192.438 41.3664L190.278 40.8635L190.511 39.8484L190.53 39.8391ZM200.863 31.15C202.316 31.4853 203.88 31.8857 204.96 31.5505C206.086 31.1966 207.017 30.107 207.371 28.5982L207.604 27.5831C207.929 26.1955 207.548 25.0313 206.812 24.277C206.021 23.4761 205.332 23.2526 202.828 22.6658L200.789 22.1909L198.815 30.6751L200.854 31.15H200.863Z" fill="black"/>
<path d="M217.77 47.2244L220.525 48.5003L228.708 30.7869L225.953 29.511L226.39 28.561L228.401 29.4923L230.487 30.4888L232.106 31.2059L233.596 31.8951C235.979 32.994 236.836 33.7111 237.655 34.5028C239.349 36.1977 239.973 39.0662 239.005 41.1616C238.037 43.257 235.439 44.6447 233.056 44.4491C231.92 44.3466 230.822 44.1511 228.438 43.0428L226.688 42.2326L223.225 49.7389L227.591 51.7598L227.154 52.7098L223.532 51.0334L221.447 50.0369L219.334 49.0963L217.323 48.165L217.76 47.2151L217.77 47.2244ZM228.718 42.0277C230.673 42.9311 231.715 43.2384 232.674 43.0521C233.847 42.8566 234.778 41.8973 235.495 40.342L236.11 39.0196C236.826 37.4643 236.957 36.1325 236.342 35.1174C235.858 34.2699 234.955 33.6739 233 32.7705L231.418 32.0441L227.144 41.3013L228.727 42.0277H228.718Z" fill="black"/>
<path d="M246.927 51.1731C250.428 46.4793 257.131 44.6912 261.143 47.6807C265.156 50.6702 265.351 57.6084 261.851 62.3115C258.35 67.0052 251.647 68.7934 247.635 65.8039C243.622 62.8144 243.427 55.8762 246.927 51.1824V51.1731ZM248.277 64.9377C251.014 66.9773 254.375 66.1298 256.907 62.7306L260.845 57.4501C263.377 54.0508 263.238 50.5863 260.501 48.5375C257.764 46.4886 254.403 47.3454 251.861 50.7447L247.923 56.0252C245.391 59.4244 245.531 62.8889 248.268 64.9377H248.277Z" fill="black"/>
<path d="M268.888 71.7177L269.521 72.4255C265.984 76.4487 265.509 80.2857 268.181 83.2472C269.94 85.203 272.677 85.4637 274.279 84.0202C275.926 82.5394 276.029 80.7048 274.735 77.6128L272.789 72.8911C271.97 70.9447 272.407 68.812 274.456 66.968C276.951 64.7236 280.637 64.9005 282.946 67.4709C284.175 68.8399 284.826 70.8422 284.705 72.7049L286.949 72.2206L287.498 72.8352L282.155 77.6408L281.624 77.054C283.793 73.4965 284.044 70.3207 282.145 68.2067C280.516 66.3906 278.272 66.074 276.811 67.3778C275.563 68.4954 275.21 70.0506 276.141 72.323L278.524 78.0599C279.222 79.7362 279.259 81.9527 276.736 84.2251C273.795 86.87 269.829 86.721 267.362 83.9643C265.714 82.1297 265.071 79.8014 265.304 77.5942L262.753 78.3579L262.204 77.7432L268.898 71.7363L268.888 71.7177Z" fill="black"/>
<path d="M278.18 94.637L279.725 97.254L296.529 87.3542L294.984 84.7373L295.887 84.2064L297.013 86.1156L298.158 88.1272L299.359 90.1016L305.094 99.843L297.516 104.313L296.985 103.41C300.011 101.622 301.566 99.8989 301.836 98.1667C301.984 97.2354 301.938 96.5276 300.858 94.7022L298.047 89.9246L290.189 94.5532L291.297 96.4345C291.809 97.3099 292.219 97.878 292.693 98.1108C293.224 98.3902 294.462 98.6137 296.501 97.4123L297.209 96.9932L297.739 97.8966L288.579 103.298L288.048 102.395L288.756 101.976C290.804 100.774 291.176 99.5916 291.195 98.9955C291.213 98.4647 290.915 97.8407 290.403 96.9653L289.295 95.0841L281.252 99.8244L284.129 104.704C285.013 106.204 285.721 107.293 286.884 107.713C287.964 108.104 290.329 108.327 293.988 106.176L294.518 107.079L286.94 111.55L280.768 101.072L279.623 99.0607L278.422 97.0864L277.295 95.1772L278.198 94.6464L278.18 94.637Z" fill="black"/>
<path d="M301.025 116.299L304.051 124.429L302.692 124.942L299.666 116.811L301.035 116.309L301.025 116.299Z" fill="black"/>
<path d="M297.367 136.257L297.907 139.247L317.094 135.773L316.554 132.783L317.578 132.597L317.978 134.776L318.36 137.058L318.798 139.33L319.151 141.295C319.738 144.564 319.784 145.142 319.57 146.622C319.235 148.876 317.643 150.925 315.651 151.288C313.351 151.707 311.108 150.208 309.991 147.74L309.87 147.759C309.898 151.102 308.417 153.943 305.55 154.464C303.93 154.753 302.199 154.073 300.877 152.797C299.089 151.093 298.586 148.839 297.981 145.533L297.553 143.167L297.171 140.886L296.725 138.613L296.333 136.434L297.358 136.248L297.367 136.257ZM299.015 145.356C299.434 147.666 299.778 148.504 300.104 149.081C300.811 150.301 302.087 151.493 304.517 151.046L305.355 150.897C307.663 150.478 308.334 149.388 308.697 148.392C309.106 147.284 309.013 145.887 308.52 143.177L308.026 140.439L298.437 142.18L299.015 145.356ZM309.562 143C309.87 144.685 310.084 146.064 310.819 146.921C311.592 147.815 312.951 148.243 314.487 147.964L315.511 147.777C316.917 147.526 317.829 146.716 318.23 145.738C318.658 144.695 318.583 143.968 318.127 141.444L317.634 138.697L309.069 140.252L309.562 142.99V143Z" fill="black"/>
<path d="M320.334 184.331L320.417 181.705L306.118 181.258C302.105 181.137 299.471 178.268 299.592 174.338C299.676 171.526 300.56 169.523 302.124 168.21C303.623 166.962 305.615 166.832 307.738 166.897L320.864 167.307L320.957 164.271L322 164.299L321.935 166.515L321.833 168.825L321.795 171.134L321.73 173.351L320.687 173.323L320.781 170.287L306.164 169.831C304.964 169.793 303.791 169.849 302.757 170.52C301.463 171.339 300.756 172.774 300.7 174.478C300.597 177.709 302.804 180.056 306.164 180.159L320.464 180.606L320.548 177.98L321.591 178.017L321.395 184.378L320.352 184.35L320.334 184.331Z" fill="black"/>
<path d="M299.387 191.921L298.763 194.901L317.848 198.897L318.472 195.916L319.496 196.131L319.04 198.301L318.537 200.554L318.099 202.827L317.643 204.997L316.619 204.782L317.243 201.812L298.158 197.816L297.534 200.787L296.51 200.573L296.966 198.403L297.469 196.149L297.907 193.877L298.363 191.707L299.387 191.921Z" fill="black"/>
<path d="M295.421 209.113L294.304 211.944L312.439 219.087L313.556 216.256L314.524 216.638L313.714 218.696L312.839 220.838L312.02 222.999L311.043 225.476L310.074 225.094L311.35 221.853L293.215 214.71L291.865 218.128C291.222 219.749 290.813 220.978 291.204 222.151C291.558 223.241 292.87 225.253 296.817 226.808L296.436 227.776L288.215 224.545L291.939 215.092L292.814 212.95L293.634 210.789L294.443 208.731L295.412 209.113H295.421Z" fill="black"/>
<path d="M283.672 235.115L281.894 237.928L298.381 248.34L299.145 247.138C299.936 245.881 300.076 245.071 299.955 244.13C299.75 242.389 298.223 240.638 295.253 238.766L295.812 237.881L303.25 242.584L299.703 248.209L298.447 250.146L297.236 252.121L293.689 257.746L286.251 253.043L286.81 252.158C289.779 254.039 292.014 254.654 293.671 254.095C294.565 253.797 295.244 253.331 296.035 252.065L296.799 250.863L280.311 240.442L278.533 243.255L277.649 242.696L279.008 240.6L280.246 238.645L281.457 236.67L282.788 234.556L283.672 235.115Z" fill="black"/>
<path d="M262.009 263.362L259.682 265.317L272.203 280.265L274.53 278.309L275.201 279.11L273.506 280.535L271.719 281.997L269.969 283.506L268.442 284.791C265.891 286.924 265.416 287.24 264.02 287.799C261.897 288.619 259.328 288.265 258.024 286.709C256.516 284.912 256.712 282.23 258.294 280.032L258.211 279.939C255.325 281.615 252.122 281.736 250.251 279.51C249.19 278.244 248.929 276.409 249.376 274.621C249.972 272.218 251.675 270.663 254.254 268.512L256.097 266.966L257.885 265.504L259.635 263.995L261.329 262.57L262 263.371L262.009 263.362ZM254.924 269.303C253.128 270.812 252.569 271.52 252.234 272.097C251.517 273.317 251.126 275.012 252.709 276.903L253.258 277.555C254.766 279.352 256.042 279.399 257.084 279.222C258.248 279.035 259.421 278.262 261.525 276.493L263.657 274.705L257.391 267.226L254.915 269.303H254.924ZM262.195 277.294C260.883 278.393 259.803 279.259 259.412 280.33C259.021 281.438 259.328 282.844 260.324 284.027L260.994 284.828C261.907 285.918 263.061 286.318 264.113 286.179C265.23 286.03 265.826 285.61 267.79 283.962L269.922 282.174L264.336 275.496L262.204 277.285L262.195 277.294Z" fill="black"/>
<path d="M239.526 280.619L236.891 282.137L246.611 299.04L249.245 297.522L249.767 298.425L247.849 299.533L245.829 300.66L243.846 301.843L241.928 302.951L241.407 302.048L244.041 300.53L234.322 283.627L231.687 285.145L231.166 284.241L233.084 283.133L235.104 282.006L237.087 280.823L239.005 279.715L239.526 280.619Z" fill="black"/>
<path d="M219.79 290.705L216.662 291.841L223.337 310.169L224.677 309.685C226.074 309.172 226.679 308.614 227.163 307.803C228.066 306.295 227.927 303.985 226.726 300.679L227.703 300.325L230.719 308.595L224.473 310.877L222.294 311.64L220.134 312.46L213.888 314.732L210.871 306.462L211.849 306.108C213.05 309.415 214.437 311.268 216.094 311.845C216.988 312.162 217.807 312.199 219.203 311.687L220.544 311.203L213.869 292.875L210.741 294.011L210.387 293.033L212.752 292.204L214.921 291.412L217.081 290.593L219.427 289.736L219.781 290.714L219.79 290.705Z" fill="black"/>
<path d="M199.076 307.31C199.923 313.103 196.32 319.137 191.619 319.817C189.673 320.097 187.988 319.678 186.275 318.448L185.493 320.544L184.674 320.665L183.38 311.771L184.227 311.65C185.828 316.697 188.37 319.203 191.405 318.765C194.291 318.346 196.562 315.775 195.892 311.1L194.989 304.86C194.356 300.502 191.693 298.043 188.407 298.528C184.739 299.058 182.905 302.244 183.193 307.319L182.132 307.477C181.75 301.778 183.994 298.09 188.323 297.457C193.211 296.749 198.228 301.359 199.094 307.31H199.076Z" fill="black"/>
<path d="M171.156 310.271C170.802 316.12 166.176 321.289 161.186 320.991C156.196 320.683 152.23 314.993 152.583 309.144C152.937 303.296 157.564 298.127 162.554 298.425C167.544 298.723 171.51 304.423 171.156 310.271ZM162.489 299.496C159.072 299.291 156.736 301.843 156.475 306.08L156.075 312.655C155.814 316.893 157.834 319.705 161.251 319.92C164.658 320.125 167.004 317.573 167.265 313.335L167.665 306.76C167.926 302.523 165.906 299.71 162.489 299.496Z" fill="black"/>
<path d="M144.661 297.736L141.701 297.038L137.204 316.018L140.165 316.716L139.923 317.731L137.763 317.219L135.519 316.651L133.266 316.148L131.116 315.636L131.358 314.621L134.318 315.319L138.815 296.339L135.854 295.641L136.096 294.625L138.256 295.138L140.5 295.706L142.753 296.209L144.913 296.721L144.671 297.736H144.661Z" fill="black"/>
<path d="M127.606 293.405L124.823 292.195L117.058 310.085L119.842 311.296L119.423 312.255L113.474 309.675L110.737 291.403H110.709L104.891 304.814L107.674 306.025L107.255 306.984L100.664 304.125L101.083 303.166L103.867 304.376L112.171 285.238L112.869 285.536L116.36 308.828H116.388L123.798 291.757L121.015 290.546L121.434 289.587L128.025 292.446L127.606 293.405Z" fill="black"/>
<path d="M91.9313 274.453L89.8646 272.637L70.8823 283.599L70.333 283.115L78.4975 262.635L76.8777 261.21L77.5666 260.428L78.5906 261.322L80.164 262.747L81.9886 264.312L83.8226 265.923L83.1337 266.705L80.8715 264.721L78.3951 270.896L83.292 275.198L89.0267 271.892L86.7645 269.909L87.4534 269.126L92.6109 273.662L91.922 274.444L91.9313 274.453ZM77.9948 271.939L74.6899 280.162L74.7178 280.181L82.3517 275.757L78.0041 271.93L77.9948 271.939Z" fill="black"/>
<path d="M64.0956 261.536C59.4501 265.103 52.4306 264.907 49.5446 261.145C48.3437 259.59 47.8875 257.904 48.1203 255.809L45.9046 256.153L45.4019 255.501L52.533 250.025L53.0544 250.705C49.4329 254.57 48.4833 258.016 50.3546 260.447C52.1327 262.756 55.4842 263.492 59.2266 260.614L64.2259 256.777C67.717 254.095 68.5642 250.565 66.5347 247.93C64.2818 244.987 60.6045 244.94 56.322 247.678L55.6704 246.822C60.4555 243.702 64.7752 243.86 67.4377 247.324C70.4447 251.245 68.8807 257.876 64.1049 261.545L64.0956 261.536Z" fill="black"/>
<path d="M47.9251 238.589C42.6651 241.169 35.8319 239.576 33.7372 235.311C32.8714 233.551 32.7597 231.809 33.4021 229.797L31.1678 229.695L30.8047 228.959L38.8761 225.001L39.2485 225.765C34.9382 228.829 33.3183 232.014 34.6682 234.771C35.9529 237.387 39.0902 238.775 43.3261 236.698L48.9864 233.923C52.9336 231.986 54.4604 228.698 52.9988 225.718C51.3696 222.393 47.7761 221.611 43.0375 223.446L42.5627 222.477C47.8785 220.373 52.0678 221.378 53.9949 225.308C56.1641 229.741 53.3153 235.935 47.9158 238.58L47.9251 238.589Z" fill="black"/>
<path d="M36.5672 212.885C30.8883 214.319 24.5578 211.469 23.3382 206.617C22.1187 201.765 26.3453 196.261 32.0241 194.827C37.703 193.393 44.0335 196.242 45.2531 201.094C46.4726 205.947 42.2461 211.451 36.5672 212.885ZM44.2104 201.355C43.3725 198.04 40.2352 196.578 36.1203 197.611L29.734 199.223C25.6191 200.256 23.5431 203.032 24.3809 206.347C25.2188 209.662 28.3561 211.125 32.471 210.091L38.8574 208.48C42.9722 207.446 45.0483 204.671 44.2104 201.355Z" fill="black"/>
<path d="M20.0426 164.671L20.1357 167.297L34.4353 166.795C38.457 166.655 41.2685 169.346 41.4082 173.267C41.5106 176.08 40.7565 178.138 39.2856 179.553C37.8798 180.904 35.8876 181.165 33.7743 181.239L20.6477 181.695L20.7501 184.731L19.7075 184.769L19.633 182.552L19.5864 180.243L19.4747 177.933L19.4002 175.716L20.4429 175.679L20.5546 178.715L35.1707 178.203C36.3717 178.166 37.5354 178.026 38.5315 177.29C39.7697 176.387 40.3841 174.916 40.319 173.202C40.2072 169.97 37.8519 167.772 34.4911 167.893L20.1916 168.396L20.2847 171.023L19.242 171.06L19.0186 164.699L20.0612 164.662L20.0426 164.671Z" fill="black"/>
<path d="M40.1233 155.842L40.6632 152.853L21.4761 149.388L20.9362 152.378L19.9121 152.192L21.0665 145.803L38.2241 138.958V138.93L23.8408 136.332L23.3008 139.321L22.2674 139.135L23.5429 132.057L24.5669 132.243L24.027 135.233L44.5547 138.939L44.415 139.684L22.5374 148.411V148.439L40.8494 151.745L41.3894 148.755L42.4134 148.941L41.138 156.019L40.1047 155.833L40.1233 155.842Z" fill="black"/>
<path d="M47.8037 124.038L49.0698 120.965L31.0464 113.524L30.5065 114.846C29.9386 116.225 29.9386 117.044 30.2179 117.948C30.7206 119.633 32.5174 121.086 35.7664 122.427L35.3661 123.396L27.2295 120.034L29.7617 113.887L30.674 111.764L31.5305 109.612L34.0627 103.466L42.1994 106.828L41.799 107.796C38.55 106.455 36.2505 106.222 34.7051 107.061C33.8766 107.508 33.2901 108.085 32.7222 109.463L32.1822 110.786L50.2056 118.227L51.4717 115.154L52.4399 115.554L51.4531 117.854L50.5687 119.987L49.7122 122.138L48.7626 124.448L47.7944 124.048L47.8037 124.038Z" fill="black"/>
<path d="M57.5416 103.494L59.1615 100.923L42.6835 90.5021L41.0636 93.0725L40.1792 92.5137L41.3615 90.6418L42.6276 88.7047L43.8379 86.7303L45.0202 84.8584L45.9046 85.4172L44.2847 87.9876L60.7628 98.4182L62.3826 95.8478L63.267 96.4066L62.0847 98.2785L60.8186 100.216L59.6084 102.19L58.426 104.062L57.5416 103.503V103.494Z" fill="black"/>
<path d="M67.1864 88.7512L69.2345 86.5068L54.8233 73.3661L52.7751 75.6105L52.0024 74.9027L56.378 70.1065L74.5503 73.4313L74.5689 73.4033L63.7605 63.5501L61.7124 65.7946L60.9397 65.0868L65.7807 59.769L66.5534 60.4768L64.5053 62.7213L79.922 76.7747L79.4099 77.3335L56.2476 73.096L56.229 73.1146L69.9886 85.6593L72.0367 83.4149L72.8094 84.1227L67.9684 89.4404L67.1957 88.7326L67.1864 88.7512Z" fill="black"/>
<path d="M81.244 60.5234C77.8739 55.811 78.2835 48.7796 82.2029 45.9764C83.8786 44.775 85.9453 44.3466 88.1424 44.803L87.8073 42.1581L88.4775 41.6831L93.7095 48.9938L93.0113 49.4874C89.2875 45.9671 85.4519 44.9706 82.8266 46.8518C80.071 48.8262 79.922 52.3186 82.3611 55.7179L86.3736 61.3336C88.7661 64.677 91.6894 65.6642 94.1099 63.932C96.6607 62.1066 96.8096 58.726 94.3798 55.3267L93.1975 53.6783L89.0827 56.6305L88.4775 55.7831L97.2844 49.4781L97.8896 50.3256L95.7577 51.853L101.381 59.7038L100.71 60.1788L97.3868 58.1951L97.331 58.2324C97.5358 61.2405 96.8841 63.2614 94.7429 64.7981C90.9818 67.4896 84.8561 65.5618 81.2533 60.5234H81.244Z" fill="black"/>
<path d="M109.471 52.9332C109.014 52.0299 109.405 50.9123 110.309 50.4466C111.184 49.9996 112.319 50.3535 112.776 51.2569C113.25 52.1882 112.859 53.3058 111.984 53.7528C111.081 54.2091 109.945 53.8645 109.471 52.9332Z" fill="black"/>
</g>
<defs>
<clipPath id="clip0_260_1152">
<rect width="303" height="303" fill="white" transform="translate(19 18)"/>
</clipPath>
</defs>
</svg>
