<svg width="100%" height="auto" viewBox="0 0 218 219" fill="none" xmlns="http://www.w3.org/2000/svg">
<path d="M111.126 1.16971C116.394 1.16971 120.799 2.85876 124.886 6.48611L127.329 2.03494L127.565 1.60428H131.143V27.9197H127.264L127.151 27.2244C125.99 20.1325 123.961 14.7439 121.251 11.1482C118.562 7.57982 115.212 5.78104 111.3 5.78104C107.524 5.78108 103.958 7.21398 101.328 10.1599C98.6943 13.1098 96.937 17.6494 96.937 23.9646V41.241C96.937 47.1393 98.4653 51.8924 101.025 55.1512C103.571 58.3931 107.173 60.2058 111.474 60.2058C116.31 60.2058 120.171 58.3382 122.993 54.8289C125.838 51.2904 127.672 46.0225 128.271 39.1726L128.337 38.4148H132.947L132.877 39.3094C132.261 47.2311 130.032 53.6022 126.349 58.0086C122.646 62.4386 117.524 64.8172 111.3 64.8172C104.222 64.8171 97.6655 61.0307 92.9038 55.201C88.1394 49.3678 85.1197 41.4348 85.1196 32.9939C85.1196 24.7604 88.2324 16.829 93.0112 10.95C97.7832 5.07955 104.293 1.16985 111.126 1.16971Z" fill="black" stroke="black" stroke-width="1.65971"/>
<path d="M106.874 217.298C101.606 217.298 97.2014 215.609 93.1138 211.982L90.6714 216.433L90.4351 216.864H86.8569V190.548H90.7358L90.8491 191.243C92.0096 198.335 94.0388 203.724 96.7485 207.32C99.4378 210.888 102.788 212.687 106.7 212.687C110.476 212.687 114.042 211.254 116.672 208.308C119.306 205.358 121.063 200.818 121.063 194.503V177.227C121.063 171.329 119.535 166.575 116.975 163.317C114.429 160.075 110.827 158.262 106.526 158.262C101.69 158.262 97.8291 160.13 95.0073 163.639C92.1621 167.177 90.3284 172.445 89.729 179.295L89.6626 180.053H85.0532L85.1226 179.158C85.7388 171.237 87.9677 164.866 91.6509 160.459C95.354 156.029 100.476 153.651 106.7 153.651C113.778 153.651 120.334 157.437 125.096 163.267C129.861 169.1 132.88 177.033 132.88 185.474C132.88 193.707 129.768 201.639 124.989 207.518C120.217 213.388 113.707 217.298 106.874 217.298Z" fill="black" stroke="black" stroke-width="1.65971"/>
<path d="M188.518 32.4876C192.243 36.2126 194.163 40.5212 194.488 45.9765L199.363 44.5561L199.834 44.4187L202.365 46.9488L183.757 65.5566L181.014 62.8138L181.426 62.242C185.62 56.4067 187.995 51.1615 188.622 46.7029C189.243 42.2781 188.146 38.6374 185.38 35.8712C182.71 33.2009 179.175 31.6924 175.232 31.9159C171.284 32.1396 166.832 34.107 162.366 38.5726L150.15 50.7888C145.979 54.9596 143.699 59.4012 143.204 63.5154C142.713 67.6084 143.978 71.4373 147.019 74.4783C150.438 77.8976 154.489 79.3072 158.966 78.8211C163.48 78.3308 168.501 75.9025 173.769 71.4828L174.352 70.9939L177.611 74.2532L176.929 74.8367C170.892 80.0025 164.811 82.9315 159.091 83.4428C153.34 83.9569 148.037 82.0172 143.635 77.6161C138.63 72.6107 136.672 65.2974 137.427 57.8081C138.182 50.3145 141.657 42.5697 147.625 36.6011C153.447 30.7792 161.257 27.3719 168.793 26.5939C176.318 25.8172 183.686 27.6561 188.518 32.4876Z" fill="black" stroke="black" stroke-width="1.65971"/>
<path d="M29.482 185.98C25.757 182.255 23.8371 177.947 23.5116 172.491L18.6371 173.912L18.1655 174.049L15.6354 171.519L34.2432 152.911L36.986 155.654L36.5744 156.226C32.3803 162.061 30.0048 167.306 29.3784 171.765C28.7567 176.19 29.8536 179.83 32.6198 182.597C35.2901 185.267 38.8251 186.775 42.7678 186.552C46.7158 186.328 51.1683 184.361 55.6339 179.895L67.8501 167.679C72.0208 163.508 74.3012 159.067 74.7955 154.952C75.2872 150.859 74.022 147.031 70.981 143.99C67.5617 140.57 63.5108 139.161 59.0341 139.647C54.5201 140.137 49.4985 142.565 44.2311 146.985L43.6483 147.474L40.389 144.215L41.0705 143.631C47.1078 138.465 53.1889 135.536 58.9091 135.025C64.6601 134.511 69.9635 136.451 74.3646 140.852C79.3699 145.857 81.3284 153.17 80.5732 160.66C79.8175 168.153 76.3432 175.898 70.3747 181.867C64.5528 187.689 56.7433 191.096 49.2071 191.874C41.6818 192.651 34.3137 190.812 29.482 185.98Z" fill="black" stroke="black" stroke-width="1.65971"/>
<path d="M216.83 111.127C216.83 116.395 215.141 120.799 211.514 124.887L215.965 127.329L216.396 127.565L216.396 131.143L190.08 131.143L190.08 127.265L190.775 127.151C197.867 125.991 203.256 123.962 206.852 121.252C210.42 118.563 212.219 115.213 212.219 111.301C212.219 107.524 210.786 103.958 207.84 101.328C204.89 98.6947 200.35 96.9374 194.035 96.9374L176.759 96.9374C170.861 96.9374 166.107 98.4657 162.849 101.025C159.607 103.572 157.794 107.174 157.794 111.475C157.794 116.31 159.662 120.171 163.171 122.993C166.709 125.838 171.977 127.672 178.827 128.271L179.585 128.338L179.585 132.947L178.69 132.878C170.769 132.262 164.398 130.033 159.991 126.35C155.561 122.646 153.183 117.525 153.183 111.301C153.183 104.222 156.969 97.6659 162.799 92.9042C168.632 88.1398 176.565 85.1201 185.006 85.12C193.239 85.12 201.171 88.2328 207.05 93.0116C212.92 97.7836 216.83 104.294 216.83 111.127Z" fill="black" stroke="black" stroke-width="1.65971"/>
<path d="M1.16992 107.347C1.16992 102.079 2.85897 97.6744 6.48633 93.5868L2.03516 91.1444L1.60449 90.9081L1.60449 87.33L27.9199 87.33L27.9199 91.2089L27.2246 91.3221C20.1327 92.4826 14.7441 94.5118 11.1484 97.2216C7.58003 99.9108 5.78125 103.261 5.78125 107.173C5.78129 110.949 7.21419 114.515 10.1602 117.145C13.11 119.779 17.6496 121.536 23.9648 121.536L41.2412 121.536C47.1395 121.536 51.8927 120.008 55.1514 117.448C58.3933 114.902 60.2061 111.3 60.2061 106.999C60.206 102.163 58.3384 98.3021 54.8291 95.4803C51.2906 92.6352 46.0227 90.8015 39.1729 90.202L38.415 90.1356L38.415 85.5262L39.3096 85.5956C47.2314 86.2118 53.6025 88.4407 58.0088 92.1239C62.4389 95.827 64.8174 100.949 64.8174 107.173C64.8173 114.251 61.0309 120.807 55.2012 125.569C49.368 130.334 41.435 133.353 32.9941 133.353C24.7607 133.353 16.8292 130.241 10.9502 125.462C5.07976 120.69 1.17006 114.18 1.16992 107.347Z" fill="black" stroke="black" stroke-width="1.65971"/>
</svg>
