<svg width="100%" height="auto" viewBox="0 0 252 70" fill="none" xmlns="http://www.w3.org/2000/svg">
<path d="M28.5437 69.5724C13.2943 69.5724 0 53.2999 0 34.7862C0 16.7597 13.6853 0 28.3482 0C34.4088 0 39.3942 2.04624 44.0863 6.5285L47.4099 0.487201H49.9514V28.1603H47.3121C44.6728 12.0826 38.0256 3.31297 28.5437 3.31297C19.5505 3.31297 11.437 10.1338 11.437 24.6524V44.043C11.437 57.5872 18.4752 66.2594 28.7392 66.2594C40.1762 66.2594 47.2144 57.3924 48.5829 41.8019H51.9065C50.5379 59.3412 42.0335 69.5724 28.5437 69.5724Z" fill="black"/>
<path d="M57.0194 68.0134V64.7978H64.5463V4.77458H57.0194V1.55904H67.8699L72.2687 0L72.7575 0.487201V64.7978H80.2844V68.0134H74.0283L68.6519 67.9159L63.2755 68.0134H57.0194Z" fill="black"/>
<path d="M99.4889 69.5724C91.8642 69.5724 86.9766 65.8697 86.9766 59.9258V57.5872C86.9766 51.0587 89.8114 48.0381 97.4361 46.5765C103.008 45.5046 112.783 43.2635 112.783 35.176V33.422C112.783 29.0372 110.828 26.114 104.474 26.114C100.564 26.114 96.6541 27.5756 94.6013 29.7193V29.9142L95.8721 30.4014C99.2934 31.7655 100.173 33.6169 100.173 35.7606C100.173 38.9761 97.8271 41.3147 94.6013 41.3147C91.571 41.3147 88.7362 38.6838 88.7362 34.7862C88.7362 28.1603 96.5563 22.801 106.527 22.801C111.317 22.801 115.618 24.3601 118.062 26.3089C120.506 28.2577 120.994 30.0116 120.994 33.3246V60.8028C120.994 63.6285 122.363 65.285 124.513 65.285C127.837 65.285 129.792 62.5567 129.792 57.7821V46.1867H133.018V57.977C133.018 64.3106 129.694 68.9878 122.461 68.9878C116.889 68.9878 113.761 65.7722 113.272 61.29H113.076C110.828 66.5517 105.647 69.5724 99.4889 69.5724ZM95.5788 60.413C95.5788 64.9927 98.4136 65.9671 101.151 65.9671C107.993 65.9671 112.783 60.0232 112.783 51.3511V42.5814H112.588C110.535 46.2842 104.768 48.0381 101.444 49.0125C97.7294 50.0843 95.5788 52.0331 95.5788 56.8077V60.413Z" fill="black"/>
<path d="M136.825 68.0134V64.7978H144.352V27.5756H136.825V24.3601H147.675L152.074 22.801L152.563 23.2882V33.3246H152.759C155.593 26.4063 160.481 22.801 167.03 22.801C170.452 22.801 174.264 24.1652 176.415 26.0166C178.565 27.8679 179.152 29.7193 179.152 33.3246H179.347C182.182 26.4063 187.07 22.801 193.717 22.801C197.04 22.801 200.853 24.1652 203.003 26.0166C205.154 27.8679 205.74 29.1347 205.74 32.2527V64.7978H213.267V68.0134H207.011L201.635 67.9159L196.258 68.0134H190.002V64.7978H197.529V32.4476C197.529 28.55 195.574 26.4063 191.468 26.4063C184.039 26.4063 179.152 35.7606 179.152 49.6946V64.7978H186.679V68.0134H180.422L175.046 67.9159L169.67 68.0134H163.414V64.7978H170.94V32.4476C170.94 28.55 168.985 26.4063 164.88 26.4063C157.451 26.4063 152.563 35.7606 152.563 49.6946V64.7978H160.09V68.0134H153.834L148.457 67.9159L143.081 68.0134H136.825Z" fill="black"/>
<path d="M219.856 69.2801V49.792H222.398C224.157 61.4848 230.218 66.3569 236.865 66.3569C242.437 66.3569 245.663 63.1413 245.663 58.7565C245.663 55.3461 243.121 52.8127 238.918 51.3511L226.992 47.0637C223.669 45.8944 220.052 41.607 220.052 35.7606C220.052 28.9398 226.015 22.801 233.151 22.801C236.963 22.801 240.287 24.0678 243.317 26.6012L245.956 23.0934H248.107V39.2685H245.956C244.49 31.1809 239.602 25.9191 233.248 25.9191C229.045 25.9191 225.233 28.55 225.233 32.8374C225.233 35.9555 227.09 38.1966 231.782 39.8531L245.272 44.7251C248.4 45.8944 251.333 50.2792 251.333 55.3461C251.333 62.5567 245.37 69.5724 236.767 69.5724C232.271 69.5724 228.459 68.1108 224.548 64.6029L222.007 69.2801H219.856Z" fill="black"/>
</svg>
