<svg width="100%" height="auto" viewBox="0 0 699 330" fill="none" xmlns="http://www.w3.org/2000/svg">
<path d="M2.0904 179.044V176.91L10.1472 167.895C12.7602 164.977 15.4603 161.58 15.4603 157.791V156.223C15.4603 152.826 13.6312 150.823 10.3649 150.823C7.9261 150.823 5.61795 152.086 4.7034 154.264V154.351L5.4873 154.612C6.92445 155.091 7.5777 155.875 7.5777 157.051C7.5777 158.575 6.48895 159.707 4.9647 159.707C3.5711 159.707 2.22105 158.531 2.22105 156.441C2.22105 152.652 6.14055 149.168 10.8875 149.168C16.07 149.168 20.033 152.652 20.033 157.181C20.033 160.97 17.1151 164.019 12.194 168.853L5.61795 175.342V175.472H18.3346L19.2056 171.553H20.7298L19.162 179.044H2.0904ZM35.2034 179.74C29.7161 179.74 24.9256 174.079 24.9256 164.454C24.9256 154.83 29.7161 149.168 35.2034 149.168C40.6471 149.168 45.4376 154.83 45.4376 164.454C45.4376 174.079 40.6471 179.74 35.2034 179.74ZM29.4983 172.119C29.4983 175.777 31.8065 178.26 35.2034 178.26C38.6003 178.26 40.8649 175.777 40.8649 172.119V156.789C40.8649 153.131 38.6003 150.649 35.2034 150.649C31.8065 150.649 29.4983 153.131 29.4983 156.789V172.119Z" fill="black"/>
<path d="M646.904 179.044V176.91L654.961 167.895C657.574 164.977 660.274 161.58 660.274 157.791V156.223C660.274 152.826 658.445 150.823 655.179 150.823C652.74 150.823 650.432 152.086 649.517 154.264V154.351L650.301 154.612C651.738 155.091 652.392 155.875 652.392 157.051C652.392 158.575 651.303 159.707 649.779 159.707C648.385 159.707 647.035 158.531 647.035 156.441C647.035 152.652 650.955 149.168 655.701 149.168C660.884 149.168 664.847 152.652 664.847 157.181C664.847 160.97 661.929 164.019 657.008 168.853L650.432 175.342V175.472H663.149L664.02 171.553H665.544L663.976 179.044H646.904ZM677.056 179.74C673.049 179.74 669.652 177.084 669.652 174.297C669.652 172.555 670.872 171.248 672.44 171.248C673.92 171.248 674.966 172.424 674.966 173.774C674.966 175.08 674.051 175.69 673.398 176.169L672.744 176.648V176.735C673.441 177.693 675.27 178.26 676.838 178.26C680.714 178.26 682.848 175.777 682.848 171.597V166.762C682.848 162.843 681.193 160.84 677.622 160.84C675.793 160.84 673.659 161.841 672.309 163.54L670.523 162.495C671.743 159.664 672.135 153.523 671.394 150.17L671.569 149.909H685.635L685.984 148.123H687.464L686.68 153.48H673.92L673.006 160.448L673.093 160.491C674.878 159.49 676.272 159.098 678.188 159.098C683.414 159.098 687.421 163.496 687.421 169.245C687.421 174.645 683.109 179.74 677.056 179.74Z" fill="black"/>
<path d="M367.098 1.74414C375.068 1.74424 381.731 4.29971 387.916 9.78809L391.609 3.05273L391.966 2.40137H397.38V42.2148H391.512L391.339 41.1621C389.584 30.4328 386.514 22.2807 382.415 16.8408C378.346 11.4425 373.279 8.72182 367.361 8.72168C361.647 8.72168 356.252 10.8887 352.273 15.3457C348.289 19.8085 345.63 26.6761 345.63 36.2305V62.3682C345.63 71.2918 347.942 78.483 351.815 83.4131C355.667 88.3175 361.117 91.0596 367.624 91.0596C374.939 91.0595 380.78 88.2346 385.049 82.9258C389.354 77.5723 392.129 69.6018 393.036 59.2383L393.136 58.0918H400.109L400.003 59.4443C399.071 71.4294 395.7 81.0689 390.127 87.7354C384.525 94.4375 376.777 98.036 367.361 98.0361C356.652 98.0361 346.732 92.3082 339.528 83.4883C332.32 74.6633 327.751 62.6609 327.751 49.8906C327.751 37.4342 332.46 25.4354 339.69 16.541C346.91 7.6592 356.76 1.74414 367.098 1.74414Z" fill="black" stroke="black" stroke-width="2.51097"/>
<path d="M360.662 328.723C352.691 328.723 346.029 326.168 339.844 320.679L336.151 327.415L335.793 328.066H330.379V288.253H336.248L336.42 289.305C338.176 300.035 341.246 308.187 345.345 313.627C349.414 319.025 354.481 321.746 360.399 321.746C366.112 321.746 371.508 319.579 375.487 315.122C379.471 310.659 382.129 303.791 382.129 294.237V268.099C382.129 259.176 379.817 251.984 375.945 247.054C372.092 242.15 366.642 239.408 360.136 239.408C352.821 239.408 346.979 242.233 342.71 247.542C338.406 252.895 335.631 260.866 334.724 271.229L334.624 272.376H327.651L327.756 271.023C328.689 259.038 332.06 249.398 337.632 242.732C343.235 236.03 350.983 232.431 360.399 232.431C371.108 232.431 381.028 238.159 388.232 246.979C395.44 255.804 400.008 267.806 400.008 280.577C400.008 293.033 395.3 305.032 388.07 313.926C380.85 322.808 371 328.723 360.662 328.723Z" fill="black" stroke="black" stroke-width="2.51097"/>
<path d="M484.183 49.1246C489.819 54.7604 492.723 61.2788 493.215 69.5327L500.59 67.3816L501.303 67.1738L505.131 71.0021L476.979 99.1545L472.829 95.0051L473.452 94.1385C479.797 85.3102 483.391 77.3753 484.339 70.6299C485.279 63.9359 483.62 58.4291 479.435 54.2442C475.395 50.2042 470.047 47.9213 464.082 48.2594C458.11 48.5979 451.374 51.5742 444.618 58.3301L426.135 76.8123C419.826 83.1222 416.375 89.842 415.628 96.0664C414.884 102.259 416.799 108.051 421.399 112.652C426.572 117.824 432.7 119.957 439.472 119.222C446.302 118.481 453.9 114.807 461.869 108.12L462.751 107.38L467.681 112.311L466.65 113.192C457.517 121.008 448.317 125.44 439.662 126.214C430.962 126.991 422.939 124.057 416.28 117.399C408.708 109.826 405.744 98.7619 406.886 87.4313C408.029 76.0941 413.286 64.377 422.316 55.347C431.124 46.539 442.938 41.3841 454.34 40.2071C465.725 39.0317 476.873 41.8145 484.183 49.1246Z" fill="black" stroke="black" stroke-width="2.51097"/>
<path d="M243.577 281.343C237.941 275.707 235.037 269.189 234.544 260.935L227.17 263.086L226.457 263.294L222.629 259.465L250.781 231.313L254.93 235.462L254.308 236.329C247.963 245.157 244.369 253.092 243.421 259.837C242.481 266.531 244.14 272.038 248.325 276.223C252.365 280.263 257.712 282.546 263.677 282.208C269.65 281.869 276.386 278.893 283.142 272.137L301.624 253.655C307.934 247.345 311.384 240.625 312.132 234.401C312.876 228.209 310.961 222.416 306.361 217.816C301.188 212.643 295.06 210.51 288.287 211.245C281.458 211.987 273.86 215.661 265.891 222.348L265.009 223.087L260.078 218.157L261.109 217.275C270.243 209.459 279.443 205.027 288.097 204.254C296.798 203.476 304.821 206.41 311.48 213.068C319.052 220.641 322.016 231.705 320.874 243.036C319.73 254.373 314.474 266.09 305.444 275.12C296.636 283.928 284.822 289.083 273.42 290.26C262.035 291.436 250.887 288.653 243.577 281.343Z" fill="black" stroke="black" stroke-width="2.51097"/>
<path d="M527.016 168.099C527.016 176.069 524.46 182.732 518.972 188.916L525.707 192.609L526.358 192.967L526.358 198.381L486.545 198.381L486.545 192.513L487.598 192.34C498.327 190.584 506.479 187.515 511.919 183.415C517.317 179.347 520.038 174.28 520.038 168.361C520.038 162.648 517.871 157.252 513.414 153.274C508.951 149.289 502.084 146.631 492.529 146.631L466.392 146.631C457.468 146.631 450.277 148.943 445.347 152.816C440.442 156.668 437.7 162.118 437.7 168.624C437.7 175.94 440.525 181.781 445.834 186.05C451.187 190.355 459.158 193.129 469.521 194.036L470.668 194.137L470.668 201.109L469.315 201.004C457.33 200.072 447.691 196.7 441.024 191.128C434.322 185.526 430.724 177.778 430.724 168.361C430.724 157.652 436.452 147.732 445.271 140.528C454.096 133.32 466.099 128.752 478.869 128.752C491.326 128.752 503.324 133.461 512.219 140.691C521.101 147.91 527.016 157.761 527.016 168.099Z" fill="black" stroke="black" stroke-width="2.51097"/>
<path d="M200.744 162.378C200.744 154.407 203.3 147.745 208.788 141.56L202.053 137.867L201.401 137.509L201.401 132.095L241.215 132.095L241.215 137.964L240.162 138.136C229.433 139.892 221.281 142.962 215.841 147.061C210.442 151.13 207.722 156.197 207.722 162.115C207.722 167.828 209.889 173.224 214.346 177.203C218.809 181.187 225.676 183.845 235.23 183.845L261.368 183.845C270.292 183.845 277.483 181.533 282.413 177.661C287.318 173.808 290.06 168.358 290.06 161.852C290.059 154.537 287.235 148.695 281.926 144.426C276.572 140.122 268.602 137.347 258.238 136.44L257.092 136.339L257.092 129.367L258.444 129.472C270.429 130.404 280.069 133.776 286.735 139.348C293.437 144.951 297.036 152.699 297.036 162.115C297.036 172.824 291.308 182.744 282.488 189.948C273.663 197.156 261.661 201.724 248.891 201.724C236.434 201.724 224.435 197.016 215.541 189.786C206.659 182.566 200.744 172.716 200.744 162.378Z" fill="black" stroke="black" stroke-width="2.51097"/>
</svg>
